<svg width="39" height="39" viewBox="0 0 39 39" fill="none" xmlns="http://www.w3.org/2000/svg">
<g filter="url(#filter0_d_5257_137)">
<path d="M12.9082 21.3369C12.7003 21.1157 12.5663 20.8354 12.5248 20.5347C12.4833 20.2341 12.5363 19.9279 12.6766 19.6587C12.8229 19.3853 13.0473 19.1619 13.3226 19.0181L15.1484 18.1264C15.6055 17.8992 16.0035 17.5688 16.311 17.1614C16.6185 16.754 16.8271 16.2807 16.9202 15.7789L17.2749 13.7527C17.3384 13.4515 17.4948 13.1779 17.722 12.9704C17.9493 12.7628 18.2359 12.6318 18.5416 12.5957C18.8472 12.5596 19.1565 12.6204 19.4258 12.7694C19.6951 12.9184 19.9109 13.1481 20.0427 13.4262L20.9362 15.2542C21.1633 15.7115 21.4936 16.1098 21.9011 16.4174C22.3087 16.7251 22.7822 16.9338 23.2842 17.027L25.3069 17.385C25.6061 17.4463 25.8788 17.5994 26.0869 17.8229C26.295 18.0464 26.4283 18.3292 26.4682 18.632C26.5081 18.9348 26.4526 19.2424 26.3095 19.5122C26.1664 19.782 25.9427 20.0005 25.6696 20.1373L23.8081 21.0482C23.364 21.2736 22.9767 21.5968 22.6756 21.9935C22.3744 22.3903 22.1672 22.8501 22.0695 23.3385L21.7188 25.3627C21.6572 25.6618 21.504 25.9343 21.2804 26.1423C21.0569 26.3504 20.7741 26.4837 20.4713 26.5237C20.1686 26.5638 19.8608 26.5086 19.5909 26.3658C19.3209 26.223 19.1021 25.9998 18.9649 25.727L18.0757 23.8998C17.8479 23.4401 17.5154 23.0403 17.1049 22.7325C16.6944 22.4247 16.2173 22.2176 15.7122 22.1277L13.6853 21.7704C13.3869 21.71 13.1154 21.5578 12.9082 21.3369Z" fill="#358BB9"/>
</g>
<defs>
<filter id="filter0_d_5257_137" x="0.511047" y="0.585693" width="37.9698" height="37.9507" filterUnits="userSpaceOnUse" color-interpolation-filters="sRGB">
<feFlood flood-opacity="0" result="BackgroundImageFix"/>
<feColorMatrix in="SourceAlpha" type="matrix" values="0 0 0 0 0 0 0 0 0 0 0 0 0 0 0 0 0 0 127 0" result="hardAlpha"/>
<feOffset/>
<feGaussianBlur stdDeviation="6"/>
<feComposite in2="hardAlpha" operator="out"/>
<feColorMatrix type="matrix" values="0 0 0 0 0.532812 0 0 0 0 0.184062 0 0 0 0 0.590937 0 0 0 0.35 0"/>
<feBlend mode="normal" in2="BackgroundImageFix" result="effect1_dropShadow_5257_137"/>
<feBlend mode="normal" in="SourceGraphic" in2="effect1_dropShadow_5257_137" result="shape"/>
</filter>
</defs>
</svg>
